<svg id="svg" version="1.1" xmlns="http://www.w3.org/2000/svg" xmlns:xlink="http://www.w3.org/1999/xlink" width="400" height="65.13849092645654" viewBox="0, 0, 400,65.13849092645654"><g id="svgg"><path id="path0" d="M137.644 4.839 C 136.852 4.922,135.914 5.061,135.560 5.148 C 131.150 6.233,130.147 6.587,127.417 8.018 C 125.426 9.063,122.823 10.833,121.821 11.825 C 121.585 12.059,121.247 12.368,121.071 12.513 C 118.762 14.407,114.747 20.049,114.082 22.333 C 114.015 22.563,113.793 23.125,113.587 23.583 C 112.109 26.879,111.363 33.787,112.048 37.833 C 112.358 39.667,113.202 42.889,113.620 43.839 C 113.800 44.248,114.048 44.846,114.172 45.167 C 114.459 45.913,115.901 48.573,116.432 49.333 C 118.982 52.990,121.363 55.385,124.750 57.704 C 125.117 57.955,125.492 58.160,125.583 58.160 C 125.675 58.160,127.495 53.342,129.628 47.455 C 131.761 41.567,134.524 33.975,135.768 30.583 C 137.012 27.192,138.242 23.817,138.501 23.083 C 138.760 22.350,139.621 19.988,140.415 17.833 C 141.209 15.679,142.186 13.017,142.587 11.917 C 142.987 10.817,143.662 8.979,144.087 7.833 C 145.074 5.172,145.096 5.073,144.747 4.938 C 144.260 4.752,139.154 4.680,137.644 4.839 M215.929 11.262 C 215.453 11.737,215.638 12.034,220.166 18.083 C 222.636 21.383,224.659 24.140,224.662 24.208 C 224.664 24.277,221.044 24.333,216.617 24.333 C 210.578 24.333,208.517 24.383,208.367 24.533 C 208.233 24.667,208.167 25.404,208.167 26.750 C 208.167 29.270,208.066 29.167,210.516 29.167 C 212.909 29.167,212.666 28.541,212.669 34.722 C 212.671 38.641,212.728 39.988,212.926 40.830 C 214.056 45.623,219.722 48.635,224.446 46.954 C 225.940 46.422,225.833 46.139,225.833 50.647 C 225.833 54.982,225.655 54.667,228.107 54.667 C 230.783 54.667,230.500 56.219,230.500 41.546 L 230.500 29.167 232.396 29.167 C 234.736 29.167,234.644 29.265,234.677 26.714 C 234.710 24.119,234.989 24.333,231.585 24.333 L 228.689 24.333 228.376 23.875 C 228.204 23.623,227.097 21.767,225.918 19.750 C 220.124 9.847,221.132 11.000,218.273 11.000 C 216.602 11.000,216.139 11.052,215.929 11.262 M357.583 15.344 C 356.886 15.549,355.443 16.857,354.680 17.977 C 353.369 19.900,352.502 20.416,350.196 20.642 C 348.496 20.809,347.891 21.157,347.403 22.250 C 347.206 22.692,347.179 22.706,347.173 22.373 C 347.151 21.095,345.932 20.667,342.314 20.667 C 339.096 20.667,338.795 20.730,338.010 21.570 L 337.603 22.006 337.603 27.420 L 337.603 32.833 336.718 32.833 L 335.833 32.833 335.833 27.661 C 335.833 20.313,336.062 20.633,330.863 20.704 L 327.475 20.750 326.821 21.452 L 326.167 22.154 326.155 24.285 C 326.144 26.232,326.124 26.366,325.926 25.828 C 325.293 24.110,323.745 22.401,322.218 21.735 C 321.686 21.503,321.124 21.245,320.969 21.162 C 320.324 20.815,318.334 20.669,314.219 20.668 C 307.762 20.666,307.773 20.657,307.864 25.734 L 307.917 28.691 308.619 29.346 C 309.314 29.994,309.334 30.000,310.702 30.017 C 311.939 30.032,312.014 30.050,311.419 30.189 C 310.461 30.413,308.462 31.396,307.899 31.920 C 307.634 32.167,307.302 32.455,307.161 32.560 C 307.021 32.664,306.741 33.012,306.539 33.333 L 306.172 33.917 306.162 30.500 C 306.145 24.654,304.497 21.962,300.250 20.844 C 299.186 20.564,287.129 20.607,286.453 20.894 C 285.145 21.447,285.250 20.097,285.250 36.325 C 285.250 52.243,285.164 51.037,286.350 51.656 C 287.324 52.163,292.504 52.175,293.491 51.671 C 294.808 50.999,294.833 50.910,294.833 46.894 L 294.833 43.333 297.227 43.333 C 301.116 43.333,302.199 42.988,303.945 41.190 L 305.000 40.103 305.005 42.093 C 305.016 46.176,305.541 47.861,307.340 49.577 C 309.420 51.560,310.198 51.734,317.277 51.794 L 322.971 51.842 323.861 51.432 C 326.292 50.312,326.330 50.179,326.350 42.714 C 326.359 39.342,326.417 36.733,326.479 36.917 C 326.995 38.449,328.851 41.000,329.449 41.000 C 329.569 41.000,329.667 41.078,329.667 41.174 C 329.667 41.270,330.060 41.532,330.542 41.756 C 331.378 42.145,331.393 42.163,330.880 42.165 C 330.268 42.167,329.189 42.681,328.728 43.191 C 328.444 43.505,328.417 43.852,328.417 47.120 L 328.417 50.706 329.167 51.359 L 329.917 52.012 335.333 51.964 C 338.960 51.932,340.860 51.855,341.083 51.729 C 341.267 51.625,341.717 51.447,342.083 51.333 C 343.921 50.758,345.506 49.347,346.500 47.399 L 347.083 46.255 347.171 37.336 C 347.219 32.430,347.275 28.511,347.296 28.627 C 347.492 29.733,348.447 30.333,350.008 30.333 L 351.167 30.333 351.167 40.173 C 351.167 53.016,350.784 52.083,356.059 52.083 C 359.328 52.083,359.439 52.072,359.917 51.696 C 361.064 50.794,360.998 51.491,360.999 40.375 L 361.000 30.333 362.125 30.331 C 363.441 30.328,363.933 30.120,364.453 29.348 L 364.833 28.784 364.833 39.694 L 364.833 50.604 365.292 51.010 C 366.189 51.805,366.336 51.833,369.631 51.833 C 372.746 51.833,372.771 51.830,373.453 51.388 C 374.538 50.685,374.500 51.085,374.500 40.359 C 374.500 29.991,374.487 30.167,375.277 30.167 C 375.985 30.167,376.000 30.387,376.000 40.650 L 376.000 50.489 376.480 50.980 C 377.412 51.933,377.708 52.000,380.950 51.995 C 386.186 51.986,385.833 52.825,385.833 40.363 C 385.833 30.043,385.824 30.167,386.583 30.167 C 387.342 30.167,387.333 30.043,387.333 40.356 C 387.333 50.998,387.313 50.773,388.324 51.410 C 389.306 52.031,394.941 52.066,396.011 51.458 C 397.034 50.878,397.018 51.104,396.965 38.042 C 396.911 24.882,397.027 26.167,395.726 24.276 C 393.213 20.623,388.398 19.349,384.479 21.299 L 383.040 22.015 382.222 21.533 C 380.236 20.361,376.444 20.080,374.633 20.970 L 373.849 21.355 373.328 20.969 C 372.689 20.496,367.654 20.286,366.455 20.682 C 365.822 20.890,364.834 21.824,364.833 22.214 C 364.832 22.326,364.683 22.172,364.501 21.873 C 363.985 21.027,363.254 20.668,362.042 20.667 L 361.000 20.667 361.000 18.738 C 361.000 16.876,360.983 16.786,360.508 16.095 C 359.909 15.224,358.886 14.961,357.583 15.344 M359.260 16.736 C 359.548 16.946,359.593 17.245,359.667 19.444 L 359.750 21.917 361.247 21.965 C 363.516 22.039,363.500 22.013,363.500 25.537 C 363.500 29.133,363.479 29.167,361.174 29.167 L 359.667 29.167 359.664 39.625 C 359.663 45.377,359.606 50.166,359.539 50.267 C 359.074 50.963,353.934 51.139,353.106 50.488 L 352.667 50.142 352.667 39.655 L 352.667 29.167 351.106 29.167 C 349.779 29.167,349.479 29.115,349.106 28.821 L 348.667 28.476 348.667 25.571 C 348.667 22.229,348.752 22.000,349.992 22.000 C 352.465 22.000,354.237 20.939,356.087 18.351 C 357.136 16.885,358.507 16.187,359.260 16.736 M379.173 21.835 C 380.275 22.043,381.661 22.669,382.505 23.337 L 383.147 23.846 383.949 23.233 C 387.626 20.422,393.048 21.727,395.095 25.917 L 395.583 26.917 395.628 38.443 C 395.669 48.799,395.646 49.996,395.408 50.235 C 395.006 50.637,389.418 50.628,388.971 50.224 C 388.683 49.963,388.666 49.428,388.657 40.266 C 388.650 33.223,388.594 30.424,388.449 30.000 C 388.039 28.798,385.988 28.437,385.027 29.397 L 384.583 29.841 384.500 39.935 L 384.417 50.030 384.023 50.348 C 383.404 50.849,378.416 50.828,377.772 50.321 L 377.333 49.976 377.333 40.196 C 377.333 29.042,377.380 29.449,376.036 29.024 C 375.102 28.728,374.242 28.899,373.642 29.499 L 373.167 29.974 373.167 39.867 C 373.167 48.550,373.135 49.804,372.907 50.130 C 372.503 50.707,366.664 50.707,366.259 50.130 C 365.802 49.476,365.873 22.794,366.333 22.333 C 367.233 21.434,373.167 21.952,373.167 22.931 C 373.167 23.076,373.223 23.169,373.292 23.139 C 373.360 23.108,373.905 22.844,374.502 22.552 C 376.138 21.751,377.572 21.531,379.173 21.835 M300.322 22.261 C 303.959 23.285,304.833 25.210,304.833 32.193 C 304.833 38.206,304.457 39.481,302.231 41.013 C 300.801 41.997,300.507 42.061,297.000 42.159 L 293.750 42.250 293.667 46.140 C 293.561 51.074,293.900 50.667,289.898 50.667 C 285.830 50.667,286.333 52.690,286.333 36.333 C 286.333 22.889,286.339 22.661,286.667 22.333 C 287.124 21.876,298.738 21.815,300.322 22.261 M320.804 22.489 C 322.797 23.214,324.076 24.546,324.707 26.553 C 325.081 27.742,325.083 27.817,325.083 38.167 L 325.083 48.583 324.692 49.214 C 323.887 50.508,323.563 50.577,318.008 50.634 C 311.390 50.703,309.903 50.401,308.219 48.644 C 306.559 46.912,306.291 45.729,306.362 40.462 L 306.417 36.417 306.934 35.325 C 308.310 32.421,310.298 31.376,314.750 31.214 C 317.545 31.113,317.667 31.068,317.667 30.118 C 317.667 28.854,317.599 28.833,313.550 28.833 C 308.881 28.833,309.167 29.057,309.167 25.393 C 309.167 22.905,309.186 22.751,309.541 22.373 L 309.915 21.975 314.833 22.040 C 319.458 22.102,319.813 22.128,320.804 22.489 M334.333 22.333 C 334.653 22.653,334.667 22.889,334.667 28.052 C 334.667 34.539,334.543 34.168,336.715 34.164 C 338.932 34.160,338.833 34.449,338.833 27.928 C 338.833 21.357,338.448 22.000,342.380 22.000 C 344.716 22.000,345.329 22.049,345.630 22.259 L 346.000 22.519 346.000 33.659 C 346.000 46.249,346.025 45.980,344.680 47.858 C 342.948 50.277,341.633 50.667,335.207 50.667 C 329.051 50.667,329.667 51.059,329.667 47.141 C 329.667 43.155,329.233 43.500,334.250 43.500 C 338.540 43.500,338.833 43.432,338.833 42.442 C 338.833 41.574,338.378 41.429,335.360 41.332 C 330.442 41.174,328.039 39.266,327.489 35.083 C 327.164 32.611,327.353 22.771,327.734 22.351 C 328.212 21.823,333.809 21.809,334.333 22.333 M125.867 26.521 C 126.830 26.725,128.016 27.269,128.668 27.807 L 129.083 28.149 128.134 29.106 L 127.184 30.062 126.361 29.615 C 123.057 27.816,119.217 31.153,120.445 34.756 C 121.506 37.872,125.997 38.613,127.719 35.957 C 128.517 34.726,128.448 34.667,126.243 34.667 L 124.319 34.667 124.368 33.375 L 124.417 32.083 127.562 32.038 C 131.421 31.982,131.236 31.883,131.128 33.936 C 130.755 41.076,121.192 42.867,118.116 36.373 C 115.666 31.202,120.281 25.336,125.867 26.521 M140.667 32.917 L 140.667 39.167 141.417 39.167 L 142.167 39.167 142.167 36.667 L 142.167 34.167 143.875 34.159 C 147.131 34.145,149.030 32.606,148.796 30.170 C 148.551 27.618,146.992 26.669,143.042 26.668 L 140.667 26.667 140.667 32.917 M145.721 28.394 C 148.719 29.646,147.142 32.775,143.583 32.636 L 142.250 32.583 142.203 30.593 C 142.177 29.498,142.193 28.505,142.239 28.385 C 142.355 28.083,144.994 28.090,145.721 28.394 M225.762 29.573 C 226.063 30.770,225.748 39.409,225.378 40.106 C 223.680 43.309,219.388 43.297,217.892 40.085 C 217.512 39.269,217.503 39.138,217.502 34.208 L 217.500 29.167 221.580 29.167 L 225.660 29.167 225.762 29.573 M293.667 32.083 L 293.667 35.000 295.232 35.000 C 297.565 35.000,297.583 34.977,297.583 32.083 C 297.583 29.189,297.565 29.167,295.232 29.167 L 293.667 29.167 293.667 32.083 M151.417 30.479 C 150.686 30.672,149.970 31.078,149.529 31.550 L 149.142 31.964 149.753 32.430 C 150.256 32.814,150.412 32.861,150.640 32.696 C 151.927 31.763,152.861 31.581,153.817 32.075 C 154.882 32.626,155.279 34.140,154.292 33.888 C 151.540 33.186,149.068 34.283,148.875 36.292 C 148.621 38.938,152.038 40.534,154.128 38.744 L 154.811 38.160 154.864 38.622 C 154.913 39.050,154.971 39.083,155.667 39.083 L 156.417 39.083 156.462 36.264 C 156.524 32.452,156.228 31.617,154.508 30.747 C 153.866 30.423,152.185 30.277,151.417 30.479 M296.167 31.981 C 296.167 33.548,296.148 33.633,295.792 33.728 C 294.838 33.984,294.833 33.976,294.833 32.083 L 294.833 30.333 295.500 30.333 L 296.167 30.333 296.167 31.981 M156.833 30.736 C 156.833 30.784,157.619 32.588,158.579 34.745 L 160.325 38.666 159.413 40.661 C 158.304 43.084,158.307 43.031,159.262 42.967 L 160.024 42.917 162.664 36.917 C 165.456 30.572,165.445 30.616,164.327 30.698 L 163.608 30.750 162.461 33.583 C 161.830 35.142,161.255 36.476,161.183 36.549 C 161.111 36.622,160.490 35.347,159.804 33.716 L 158.555 30.750 157.694 30.700 C 157.221 30.672,156.833 30.688,156.833 30.736 M154.333 35.215 C 155.643 35.874,154.095 37.998,152.304 37.999 C 150.453 38.001,149.854 36.259,151.386 35.325 C 152.009 34.945,153.674 34.883,154.333 35.215 M314.080 38.405 C 313.512 38.973,313.487 43.226,314.048 43.786 C 314.548 44.286,317.089 44.216,317.515 43.690 C 317.930 43.177,317.996 38.953,317.597 38.407 C 317.176 37.832,314.654 37.831,314.080 38.405 M316.500 41.167 L 316.500 43.000 315.833 43.000 L 315.167 43.000 315.167 41.167 L 315.167 39.333 315.833 39.333 L 316.500 39.333 316.500 41.167 " stroke="none" fill="#fefefe" fill-rule="evenodd"></path><path id="path1" d="M357.901 16.828 C 357.190 17.153,356.557 17.784,355.607 19.111 C 354.304 20.934,352.864 21.769,350.635 21.994 C 348.660 22.193,348.667 22.181,348.667 25.602 C 348.667 29.034,348.645 28.999,350.792 29.003 C 351.594 29.004,352.342 29.064,352.455 29.135 C 352.612 29.235,352.670 31.678,352.705 39.710 C 352.759 52.234,352.294 50.750,356.167 50.750 C 360.037 50.750,359.567 52.247,359.667 39.619 L 359.750 29.083 361.083 29.041 C 363.551 28.964,363.547 28.970,363.470 25.275 C 363.403 22.030,363.456 22.107,361.244 22.026 L 359.667 21.968 359.664 19.776 C 359.661 16.789,359.301 16.187,357.901 16.828 M375.613 22.161 C 375.080 22.332,374.339 22.673,373.967 22.919 C 373.295 23.363,373.011 23.309,373.003 22.734 C 372.991 21.928,367.399 21.572,366.477 22.319 L 366.083 22.637 366.083 36.218 C 366.083 52.495,365.594 50.500,369.583 50.500 C 373.540 50.500,373.075 51.887,373.125 39.941 C 373.155 32.592,373.218 29.984,373.369 29.694 C 373.908 28.659,375.857 28.491,376.767 29.400 L 377.333 29.967 377.336 39.775 C 377.338 47.344,377.386 49.678,377.549 50.000 L 377.760 50.417 380.781 50.462 C 383.364 50.501,383.841 50.469,384.068 50.242 C 384.305 50.005,384.333 48.926,384.333 40.233 C 384.333 29.765,384.338 29.699,385.186 29.105 C 385.874 28.623,387.387 28.737,388.039 29.320 L 388.583 29.806 388.667 39.916 C 388.747 49.682,388.761 50.035,389.074 50.264 C 389.616 50.660,395.023 50.602,395.391 50.195 C 395.860 49.676,395.806 28.055,395.332 26.704 C 393.779 22.282,388.018 20.326,384.417 22.999 C 383.151 23.939,383.146 23.939,382.168 23.198 C 380.436 21.888,377.783 21.468,375.613 22.161 " stroke="none" fill="#11bdf2" fill-rule="evenodd"></path><path id="path2" d="M217.167 3.098 C 216.296 3.225,215.171 3.418,214.667 3.528 C 214.162 3.638,213.694 3.714,213.625 3.697 C 213.556 3.680,213.500 3.746,213.500 3.843 C 213.500 3.940,213.422 3.971,213.326 3.912 C 213.230 3.853,213.062 3.874,212.951 3.960 C 212.840 4.045,212.268 4.246,211.678 4.408 C 210.773 4.655,209.892 5.029,207.083 6.357 C 206.900 6.443,206.599 6.605,206.414 6.715 C 205.375 7.338,204.740 7.744,204.667 7.833 C 204.621 7.888,204.058 8.280,203.417 8.703 C 202.775 9.127,201.388 10.284,200.335 11.276 C 198.524 12.981,198.169 13.378,196.744 15.292 C 196.419 15.727,195.969 16.291,195.744 16.545 C 195.518 16.798,195.333 17.083,195.333 17.178 C 195.333 17.272,195.033 17.801,194.667 18.353 C 194.300 18.905,194.000 19.454,194.000 19.572 C 194.000 19.690,193.826 20.043,193.614 20.356 C 193.402 20.668,193.014 21.523,192.753 22.254 C 192.491 22.985,192.225 23.658,192.162 23.750 C 192.061 23.896,191.855 24.597,191.844 24.833 C 191.842 24.879,191.729 25.292,191.593 25.750 C 191.314 26.692,190.843 29.246,190.764 30.250 C 190.735 30.617,190.690 30.917,190.663 30.917 C 190.548 30.917,190.563 36.353,190.679 36.424 C 190.750 36.468,190.784 36.766,190.754 37.086 C 190.724 37.406,190.767 37.709,190.850 37.760 C 190.932 37.811,191.000 38.115,191.000 38.435 C 191.000 39.367,191.721 42.517,192.029 42.932 C 192.103 43.032,192.110 43.167,192.045 43.233 C 191.980 43.298,192.000 43.404,192.090 43.467 C 192.179 43.531,192.393 43.996,192.565 44.500 C 192.886 45.444,194.482 48.852,194.672 49.000 C 194.731 49.046,194.992 49.450,195.252 49.898 C 195.512 50.346,195.900 50.901,196.113 51.131 C 196.326 51.361,196.500 51.614,196.500 51.695 C 196.500 52.186,201.174 57.077,202.333 57.800 C 202.563 57.943,202.825 58.144,202.917 58.247 C 203.176 58.539,204.931 59.667,205.124 59.667 C 205.220 59.667,205.338 59.771,205.387 59.899 C 205.436 60.027,205.913 60.337,206.446 60.588 C 206.980 60.839,207.454 61.091,207.500 61.148 C 207.579 61.246,208.055 61.480,208.875 61.824 C 209.081 61.911,209.597 62.134,210.021 62.319 C 210.796 62.658,213.082 63.355,214.167 63.583 C 214.487 63.650,214.825 63.764,214.917 63.837 C 215.008 63.909,215.458 64.014,215.917 64.070 C 216.375 64.126,217.313 64.243,218.000 64.331 C 222.425 64.893,231.151 63.738,233.083 62.335 C 233.175 62.268,233.625 62.078,234.083 61.912 C 234.959 61.595,236.039 60.997,238.250 59.603 C 239.546 58.786,239.934 58.499,241.495 57.202 C 242.671 56.226,245.170 53.644,245.435 53.132 C 245.567 52.876,245.742 52.667,245.824 52.667 C 245.906 52.667,246.140 52.385,246.345 52.042 C 246.550 51.698,246.805 51.342,246.913 51.250 C 248.008 50.313,250.742 44.334,251.575 41.053 C 252.195 38.612,252.707 31.832,252.342 30.917 C 252.268 30.733,252.081 29.608,251.925 28.417 C 251.614 26.040,250.782 23.288,249.646 20.878 C 249.291 20.124,249.000 19.439,249.000 19.357 C 249.000 19.275,248.876 19.105,248.724 18.979 C 248.572 18.853,248.345 18.525,248.218 18.250 C 247.910 17.581,246.165 14.948,245.843 14.667 C 245.791 14.621,245.546 14.312,245.300 13.981 C 244.779 13.282,241.822 10.354,241.073 9.796 C 240.793 9.588,240.344 9.210,240.075 8.958 C 239.807 8.706,239.511 8.500,239.418 8.500 C 239.326 8.500,239.025 8.305,238.750 8.067 C 238.475 7.829,237.884 7.448,237.436 7.220 C 236.989 6.992,236.469 6.662,236.280 6.486 C 236.091 6.310,235.869 6.167,235.785 6.167 C 235.702 6.167,235.004 5.868,234.235 5.502 C 232.670 4.759,231.017 4.167,230.505 4.167 C 230.319 4.167,230.167 4.098,230.167 4.013 C 230.167 3.830,229.778 3.737,226.917 3.230 C 224.871 2.868,219.274 2.792,217.167 3.098 M220.971 11.305 C 221.216 11.564,221.859 12.557,222.399 13.513 C 222.939 14.468,224.574 17.256,226.032 19.708 L 228.683 24.167 231.558 24.167 C 235.072 24.167,234.833 23.984,234.833 26.674 C 234.833 29.364,234.887 29.304,232.410 29.369 L 230.583 29.417 230.541 41.818 C 230.510 50.642,230.444 54.283,230.312 54.443 C 230.063 54.742,226.163 54.763,225.867 54.467 C 225.723 54.323,225.667 53.219,225.667 50.550 C 225.667 48.506,225.604 46.833,225.527 46.833 C 225.450 46.833,224.800 46.983,224.083 47.167 C 219.321 48.385,214.628 46.022,212.967 41.570 C 212.622 40.646,212.593 40.227,212.508 35.000 L 212.417 29.417 210.507 29.369 C 207.947 29.306,208.000 29.360,208.000 26.779 C 208.000 23.868,207.025 24.167,216.534 24.167 L 224.516 24.167 224.011 23.433 C 223.733 23.029,221.782 20.403,219.674 17.597 C 215.842 12.494,215.500 12.010,215.500 11.678 C 215.500 10.678,220.084 10.366,220.971 11.305 M286.870 22.259 C 286.663 22.405,286.508 22.679,286.519 22.884 C 286.537 23.222,286.545 23.225,286.619 22.917 C 286.775 22.268,286.919 22.251,293.050 22.163 L 299.083 22.075 293.162 22.038 C 288.032 22.005,287.191 22.035,286.870 22.259 M312.218 22.125 C 313.300 22.154,315.025 22.154,316.051 22.124 C 317.077 22.095,316.192 22.071,314.083 22.071 C 311.975 22.072,311.135 22.095,312.218 22.125 M329.717 22.124 C 330.523 22.155,331.798 22.155,332.550 22.124 C 333.302 22.093,332.642 22.068,331.083 22.068 C 329.525 22.068,328.910 22.094,329.717 22.124 M341.050 22.124 C 341.856 22.155,343.131 22.155,343.883 22.124 C 344.635 22.093,343.975 22.068,342.417 22.068 C 340.858 22.068,340.243 22.094,341.050 22.124 M318.708 22.282 C 318.869 22.323,319.131 22.323,319.292 22.282 C 319.452 22.240,319.321 22.205,319.000 22.205 C 318.679 22.205,318.548 22.240,318.708 22.282 M300.833 22.566 C 300.833 22.606,301.173 22.828,301.587 23.060 C 302.002 23.291,302.297 23.409,302.243 23.321 C 302.135 23.146,300.833 22.449,300.833 22.566 M309.401 25.333 C 309.401 26.846,309.426 27.465,309.457 26.708 C 309.488 25.952,309.488 24.715,309.457 23.958 C 309.426 23.202,309.401 23.821,309.401 25.333 M327.575 28.917 C 327.575 32.308,327.598 33.672,327.625 31.947 C 327.652 30.223,327.652 27.448,327.625 25.781 C 327.598 24.114,327.575 25.525,327.575 28.917 M338.908 28.250 C 338.908 31.183,338.930 32.360,338.958 30.865 C 338.986 29.369,338.986 26.969,338.958 25.531 C 338.930 24.093,338.908 25.317,338.908 28.250 M345.912 33.583 C 345.912 39.450,345.933 41.826,345.958 38.863 C 345.984 35.900,345.984 31.100,345.958 28.196 C 345.933 25.292,345.912 27.717,345.912 33.583 M334.574 28.333 C 334.574 31.221,334.597 32.402,334.625 30.958 C 334.652 29.515,334.652 27.152,334.625 25.708 C 334.597 24.265,334.574 25.446,334.574 28.333 M323.159 24.250 C 323.561 24.708,323.925 25.121,323.968 25.167 C 324.010 25.212,323.966 25.100,323.870 24.917 C 323.773 24.733,323.409 24.321,323.061 24.000 C 322.460 23.446,322.465 23.458,323.159 24.250 M304.739 32.083 C 304.739 34.467,304.763 35.418,304.791 34.198 C 304.820 32.979,304.820 31.029,304.791 29.865 C 304.763 28.702,304.739 29.700,304.739 32.083 M324.912 38.250 C 324.912 43.842,324.933 46.105,324.958 43.280 C 324.984 40.454,324.984 35.879,324.958 33.113 C 324.933 30.347,324.912 32.658,324.912 38.250 M293.407 29.215 C 293.362 29.333,293.347 30.664,293.375 32.173 L 293.426 34.917 293.463 32.047 L 293.500 29.178 295.292 29.124 L 297.083 29.071 295.286 29.035 C 293.948 29.009,293.469 29.055,293.407 29.215 M217.667 34.336 C 217.667 39.860,217.700 40.073,218.717 41.145 C 220.596 43.126,223.874 42.620,225.194 40.146 C 225.577 39.428,225.583 39.336,225.583 34.417 L 225.583 29.417 221.625 29.372 L 217.667 29.327 217.667 34.336 M317.872 30.000 C 317.872 30.321,317.906 30.452,317.948 30.292 C 317.990 30.131,317.990 29.869,317.948 29.708 C 317.906 29.548,317.872 29.679,317.872 30.000 M297.732 32.083 C 297.733 33.367,297.759 33.870,297.791 33.201 C 297.822 32.532,297.822 31.482,297.790 30.868 C 297.758 30.253,297.732 30.800,297.732 32.083 M313.708 31.457 C 314.327 31.489,315.340 31.489,315.958 31.457 C 316.577 31.425,316.071 31.399,314.833 31.399 C 313.596 31.399,313.090 31.425,313.708 31.457 M308.324 33.458 L 307.750 34.083 308.375 33.509 C 308.957 32.974,309.077 32.833,308.949 32.833 C 308.922 32.833,308.640 33.115,308.324 33.458 M313.901 38.208 C 313.586 38.580,313.586 38.581,313.917 38.313 C 314.100 38.165,314.362 38.002,314.500 37.952 C 314.712 37.874,314.710 37.858,314.484 37.846 C 314.338 37.839,314.075 38.002,313.901 38.208 M317.163 38.047 C 317.391 38.162,317.671 38.443,317.786 38.670 C 317.914 38.924,317.996 38.982,317.998 38.821 C 318.001 38.499,317.318 37.832,316.989 37.836 C 316.858 37.837,316.936 37.932,317.163 38.047 M313.566 41.000 C 313.566 42.329,313.592 42.873,313.624 42.208 C 313.655 41.544,313.655 40.456,313.624 39.792 C 313.592 39.127,313.566 39.671,313.566 41.000 M329.500 39.250 C 329.811 39.571,330.103 39.833,330.149 39.833 C 330.195 39.833,329.978 39.571,329.667 39.250 C 329.356 38.929,329.064 38.667,329.018 38.667 C 328.972 38.667,329.189 38.929,329.500 39.250 M302.824 40.292 L 302.250 40.917 302.875 40.342 C 303.457 39.808,303.577 39.667,303.449 39.667 C 303.422 39.667,303.140 39.948,302.824 40.292 M330.833 40.248 C 330.833 40.362,331.854 40.868,331.930 40.792 C 331.966 40.756,331.734 40.602,331.415 40.449 C 331.095 40.297,330.833 40.206,330.833 40.248 M334.882 41.290 C 335.504 41.323,336.479 41.322,337.049 41.290 C 337.618 41.257,337.108 41.231,335.917 41.231 C 334.725 41.232,334.259 41.258,334.882 41.290 M294.958 42.124 C 295.715 42.155,296.952 42.155,297.708 42.124 C 298.465 42.093,297.846 42.068,296.333 42.068 C 294.821 42.068,294.202 42.093,294.958 42.124 M293.405 46.083 C 293.405 48.192,293.429 49.031,293.458 47.949 C 293.487 46.867,293.487 45.142,293.458 44.116 C 293.428 43.090,293.405 43.975,293.405 46.083 M317.526 43.875 C 317.409 43.992,316.681 44.126,315.867 44.180 L 314.417 44.276 315.773 44.305 C 316.905 44.329,317.195 44.279,317.523 44.006 C 317.740 43.825,317.875 43.675,317.825 43.672 C 317.775 43.669,317.640 43.760,317.526 43.875 M329.735 47.167 C 329.735 48.679,329.760 49.298,329.791 48.542 C 329.822 47.785,329.822 46.548,329.791 45.792 C 329.760 45.035,329.735 45.654,329.735 47.167 M324.001 49.636 C 323.586 50.074,323.534 50.175,323.822 49.988 C 324.166 49.764,324.829 48.977,324.645 49.011 C 324.611 49.018,324.321 49.299,324.001 49.636 M342.417 49.588 C 342.050 49.814,341.816 49.999,341.897 49.999 C 342.068 50.000,343.167 49.340,343.167 49.236 C 343.167 49.131,343.134 49.146,342.417 49.588 M314.719 50.458 C 316.260 50.486,318.735 50.486,320.219 50.458 C 321.703 50.430,320.442 50.408,317.417 50.408 C 314.392 50.408,313.178 50.431,314.719 50.458 M332.802 50.625 C 334.114 50.653,336.214 50.653,337.468 50.625 C 338.723 50.596,337.650 50.573,335.083 50.573 C 332.517 50.573,331.490 50.596,332.802 50.625 " stroke="none" fill="#643db3" fill-rule="evenodd"></path><path id="path3" d="M72.458 22.124 C 73.123 22.155,74.210 22.155,74.875 22.124 C 75.540 22.092,74.996 22.066,73.667 22.066 C 72.337 22.066,71.794 22.092,72.458 22.124 M286.958 22.341 C 286.532 22.598,286.503 49.813,286.929 50.238 C 287.328 50.637,292.688 50.626,293.021 50.225 C 293.195 50.016,293.270 49.007,293.333 46.016 L 293.417 42.083 296.583 41.982 C 298.325 41.927,299.979 41.805,300.260 41.711 C 302.028 41.122,303.157 40.154,303.952 38.544 L 304.583 37.267 304.583 32.092 L 304.583 26.917 304.058 25.808 C 303.392 24.401,302.432 23.442,301.025 22.775 L 299.917 22.250 293.583 22.207 C 289.362 22.179,287.153 22.224,286.958 22.341 M309.870 22.426 C 309.371 22.776,309.288 27.950,309.775 28.355 C 309.985 28.529,310.916 28.597,313.691 28.639 L 317.331 28.695 317.666 29.120 C 318.088 29.656,318.095 30.512,317.682 31.023 C 317.377 31.401,317.248 31.421,314.557 31.515 C 310.065 31.671,307.822 33.002,306.919 36.046 C 306.547 37.296,306.556 44.735,306.931 45.995 C 307.434 47.689,308.602 49.007,310.312 49.810 L 311.250 50.250 317.033 50.300 C 325.676 50.374,324.825 51.671,324.828 38.417 C 324.832 25.164,324.696 24.574,321.271 22.991 C 319.483 22.165,310.854 21.737,309.870 22.426 M327.991 22.509 C 327.440 23.060,327.559 35.447,328.128 36.833 C 329.398 39.926,331.244 40.992,335.608 41.151 C 338.901 41.272,339.484 41.594,338.905 42.971 C 338.620 43.650,338.572 43.657,334.111 43.707 C 329.421 43.760,329.833 43.435,329.833 47.078 C 329.833 50.862,329.271 50.500,335.159 50.500 C 341.248 50.500,342.455 50.177,344.211 48.080 C 345.802 46.178,345.849 45.742,345.795 33.230 C 345.742 20.653,346.208 22.167,342.385 22.167 C 338.640 22.167,339.000 21.527,339.000 28.178 C 339.000 33.897,338.982 34.024,338.145 34.316 C 337.180 34.652,334.947 34.430,334.633 33.967 C 334.614 33.939,334.558 31.379,334.508 28.278 C 334.422 22.946,334.399 22.627,334.093 22.403 C 333.514 21.980,328.432 22.068,327.991 22.509 M31.109 23.868 C 30.974 24.386,31.077 24.412,31.303 23.917 C 31.407 23.688,31.428 23.500,31.349 23.500 C 31.270 23.500,31.162 23.665,31.109 23.868 M297.424 29.409 C 297.819 29.804,297.833 29.898,297.833 32.130 C 297.833 35.192,297.827 35.199,295.233 35.131 L 293.417 35.083 293.371 32.256 C 293.346 30.701,293.362 29.332,293.407 29.214 C 293.579 28.766,296.945 28.929,297.424 29.409 M317.055 37.846 C 318.027 38.116,318.212 38.720,318.141 41.381 C 318.066 44.158,317.924 44.333,315.733 44.333 C 313.572 44.333,313.500 44.227,313.500 41.037 C 313.500 37.767,314.273 37.073,317.055 37.846 " stroke="none" fill="#052d6c" fill-rule="evenodd"></path><path id="path4" d="M144.949 5.375 C 144.900 5.581,144.512 6.688,144.087 7.833 C 143.662 8.979,142.987 10.817,142.587 11.917 C 142.186 13.017,141.209 15.679,140.415 17.833 C 139.621 19.988,138.760 22.350,138.501 23.083 C 138.242 23.817,136.972 27.304,135.677 30.833 C 128.047 51.641,125.776 58.039,125.933 58.287 C 126.333 58.921,131.492 61.201,133.583 61.668 C 134.993 61.983,137.533 62.362,138.547 62.409 C 139.076 62.434,139.558 62.502,139.616 62.560 C 139.761 62.705,142.249 62.696,142.395 62.550 C 142.459 62.485,142.865 62.418,143.298 62.400 C 147.265 62.236,153.025 60.349,156.042 58.224 C 156.478 57.918,156.903 57.667,156.986 57.667 C 157.070 57.667,157.351 57.442,157.610 57.167 C 157.870 56.892,158.160 56.667,158.256 56.667 C 158.474 56.667,161.219 54.268,161.996 53.398 C 162.506 52.827,163.446 51.682,164.715 50.083 C 164.933 49.808,165.330 49.171,165.598 48.667 C 165.865 48.163,166.129 47.712,166.184 47.667 C 166.454 47.444,167.864 44.221,168.198 43.063 C 168.407 42.341,168.624 41.712,168.680 41.667 C 168.822 41.551,169.296 39.442,169.429 38.333 C 169.490 37.829,169.573 37.267,169.614 37.083 C 169.734 36.553,169.720 30.993,169.597 30.167 C 169.169 27.291,168.824 25.667,168.640 25.667 C 168.563 25.667,168.500 25.526,168.500 25.355 C 168.500 23.912,166.196 19.231,164.120 16.457 C 162.397 14.155,157.411 9.500,156.668 9.500 C 156.589 9.500,156.405 9.381,156.260 9.236 C 155.049 8.025,148.596 5.478,146.279 5.297 C 146.020 5.277,145.772 5.202,145.727 5.130 C 145.554 4.850,145.036 5.013,144.949 5.375 M215.833 11.167 C 215.650 11.350,215.505 11.631,215.511 11.792 C 215.518 11.998,215.569 11.962,215.686 11.671 C 215.936 11.043,216.090 11.005,218.391 11.003 L 220.533 11.000 221.042 11.542 C 221.381 11.902,221.487 11.961,221.358 11.717 C 220.850 10.757,216.661 10.339,215.833 11.167 M215.801 12.417 C 215.898 12.600,216.214 13.012,216.503 13.333 L 217.030 13.917 216.485 13.167 C 215.818 12.248,215.568 11.974,215.801 12.417 M217.330 14.495 C 217.524 14.767,217.767 15.043,217.871 15.107 C 217.975 15.171,217.850 14.948,217.594 14.612 C 217.037 13.881,216.827 13.788,217.330 14.495 M218.833 16.500 C 219.029 16.775,219.227 17.000,219.273 17.000 C 219.319 17.000,219.196 16.775,219.000 16.500 C 218.804 16.225,218.606 16.000,218.561 16.000 C 218.515 16.000,218.638 16.225,218.833 16.500 M221.507 20.068 C 221.820 20.504,222.148 20.905,222.236 20.960 C 222.324 21.014,222.140 20.702,221.827 20.265 C 221.513 19.829,221.185 19.428,221.097 19.374 C 221.009 19.319,221.194 19.632,221.507 20.068 M354.575 20.208 L 353.917 20.917 354.625 20.258 C 355.284 19.645,355.410 19.500,355.284 19.500 C 355.257 19.500,354.938 19.819,354.575 20.208 M377.544 21.786 C 377.797 21.825,378.172 21.824,378.377 21.784 C 378.582 21.744,378.375 21.713,377.917 21.714 C 377.458 21.716,377.291 21.748,377.544 21.786 M388.044 21.786 C 388.297 21.825,388.672 21.824,388.877 21.784 C 389.082 21.744,388.875 21.713,388.417 21.714 C 387.958 21.716,387.791 21.748,388.044 21.786 M309.529 22.386 C 308.985 22.965,308.972 27.743,309.513 28.357 L 309.860 28.750 309.597 28.338 C 309.385 28.007,309.333 27.410,309.333 25.322 C 309.333 22.587,309.380 22.407,310.167 22.118 C 310.381 22.039,310.379 22.024,310.154 22.013 C 310.010 22.006,309.728 22.174,309.529 22.386 M318.127 22.118 C 318.334 22.158,318.634 22.156,318.794 22.115 C 318.953 22.073,318.783 22.040,318.417 22.042 C 318.050 22.044,317.920 22.078,318.127 22.118 M327.749 22.334 C 327.323 22.805,327.504 22.849,327.952 22.383 C 328.155 22.173,328.261 22.000,328.187 22.000 C 328.112 22.000,327.915 22.150,327.749 22.334 M227.851 23.042 C 227.959 23.248,228.192 23.623,228.368 23.875 L 228.689 24.333 231.586 24.333 C 234.170 24.333,234.502 24.365,234.653 24.625 C 234.747 24.785,234.825 24.838,234.828 24.742 C 234.843 24.246,234.391 24.167,231.557 24.167 L 228.681 24.167 228.241 23.417 C 227.791 22.649,227.498 22.367,227.851 23.042 M286.373 36.260 C 286.338 48.493,286.361 49.970,286.596 50.260 C 286.740 50.438,286.796 50.471,286.721 50.333 C 286.645 50.196,286.545 43.896,286.498 36.333 L 286.413 22.583 286.373 36.260 M321.833 23.096 C 322.246 23.331,322.883 23.798,323.249 24.136 C 323.905 24.741,323.907 24.742,323.416 24.186 C 322.899 23.602,321.567 22.665,321.259 22.669 C 321.162 22.670,321.421 22.862,321.833 23.096 M302.000 23.044 C 302.000 23.081,302.319 23.364,302.708 23.674 C 303.098 23.983,303.311 24.105,303.181 23.944 C 302.938 23.641,302.000 22.926,302.000 23.044 M224.164 23.625 L 224.523 24.167 216.537 24.167 C 207.025 24.167,208.000 23.868,208.000 26.779 C 208.000 29.360,207.947 29.306,210.507 29.369 L 212.417 29.417 212.505 35.000 C 212.568 38.969,212.654 40.704,212.801 41.000 L 213.009 41.417 212.892 41.000 C 212.828 40.771,212.750 38.183,212.719 35.250 C 212.647 28.416,212.917 29.167,210.530 29.167 C 208.064 29.167,208.167 29.272,208.167 26.750 C 208.167 25.404,208.233 24.667,208.367 24.533 C 208.517 24.383,210.578 24.333,216.617 24.333 C 221.044 24.333,224.666 24.277,224.666 24.208 C 224.665 24.140,224.472 23.858,224.235 23.583 L 223.806 23.083 224.164 23.625 M327.408 28.833 C 327.408 31.996,327.431 33.290,327.458 31.708 C 327.485 30.127,327.485 27.540,327.458 25.958 C 327.431 24.377,327.408 25.671,327.408 28.833 M324.116 25.415 C 324.268 25.734,324.423 25.966,324.459 25.930 C 324.535 25.854,324.029 24.833,323.915 24.833 C 323.873 24.833,323.963 25.095,324.116 25.415 M234.702 26.842 C 234.658 29.249,234.740 29.167,232.383 29.167 C 231.347 29.167,230.500 29.223,230.500 29.292 C 230.499 29.360,231.354 29.394,232.399 29.365 C 234.896 29.298,234.862 29.334,234.791 26.814 L 234.738 24.917 234.702 26.842 M146.037 26.841 C 148.229 27.450,149.383 29.852,148.456 31.877 C 147.692 33.547,146.485 34.148,143.875 34.159 L 142.167 34.167 142.167 36.667 L 142.167 39.167 141.417 39.167 L 140.667 39.167 140.667 32.917 L 140.667 26.667 143.042 26.668 C 144.348 26.668,145.696 26.746,146.037 26.841 M142.239 28.385 C 142.193 28.505,142.177 29.498,142.203 30.593 L 142.250 32.583 143.583 32.636 C 146.549 32.752,148.199 30.919,146.716 29.157 C 145.949 28.245,142.520 27.654,142.239 28.385 M325.078 38.333 C 325.078 43.788,325.099 46.019,325.125 43.292 C 325.151 40.565,325.151 36.102,325.125 33.375 C 325.099 30.648,325.078 32.879,325.078 38.333 M311.708 28.791 C 312.694 28.821,314.306 28.821,315.292 28.791 C 316.277 28.762,315.471 28.737,313.500 28.737 C 311.529 28.737,310.723 28.762,311.708 28.791 M317.363 29.083 C 317.516 29.267,317.672 29.717,317.710 30.083 L 317.777 30.750 317.805 30.067 C 317.827 29.543,317.746 29.311,317.458 29.067 C 317.086 28.752,317.086 28.753,317.363 29.083 M350.213 29.123 C 350.652 29.157,351.327 29.157,351.713 29.122 C 352.100 29.087,351.742 29.059,350.917 29.059 C 350.092 29.060,349.775 29.088,350.213 29.123 M360.547 29.123 C 360.985 29.157,361.660 29.157,362.047 29.122 C 362.434 29.087,362.075 29.059,361.250 29.059 C 360.425 29.060,360.109 29.088,360.547 29.123 M217.539 34.292 L 217.578 39.417 217.625 34.372 L 217.672 29.327 221.627 29.372 L 225.583 29.417 225.671 34.000 L 225.758 38.583 225.796 34.139 C 225.816 31.694,225.788 29.575,225.732 29.430 C 225.644 29.200,225.119 29.167,221.566 29.167 L 217.500 29.167 217.539 34.292 M293.569 32.083 C 293.569 33.733,293.594 34.386,293.624 33.533 C 293.655 32.681,293.654 31.331,293.624 30.533 C 293.593 29.736,293.569 30.433,293.569 32.083 M297.130 29.426 C 297.333 29.569,297.506 29.813,297.513 29.968 C 297.522 30.156,297.555 30.178,297.614 30.032 C 297.710 29.793,297.220 29.167,296.937 29.167 C 296.839 29.167,296.926 29.283,297.130 29.426 M154.508 30.747 C 156.228 31.617,156.524 32.452,156.462 36.264 L 156.417 39.083 155.667 39.083 C 154.971 39.083,154.913 39.050,154.864 38.622 L 154.811 38.160 154.128 38.744 C 152.038 40.534,148.621 38.938,148.875 36.292 C 149.068 34.283,151.540 33.186,154.292 33.888 C 155.279 34.140,154.882 32.626,153.817 32.075 C 152.861 31.581,151.927 31.763,150.640 32.696 C 150.412 32.861,150.256 32.814,149.753 32.430 L 149.142 31.964 149.529 31.550 C 150.611 30.392,153.032 30.001,154.508 30.747 M384.411 40.000 C 384.411 45.362,384.432 47.556,384.458 44.875 C 384.484 42.194,384.484 37.806,384.458 35.125 C 384.432 32.444,384.411 34.637,384.411 40.000 M159.804 33.716 C 160.490 35.347,161.111 36.622,161.183 36.549 C 161.255 36.476,161.830 35.142,162.461 33.583 L 163.608 30.750 164.327 30.698 C 165.445 30.616,165.456 30.572,162.664 36.917 L 160.024 42.917 159.262 42.967 C 158.307 43.031,158.304 43.084,159.413 40.661 L 160.325 38.666 158.579 34.745 C 157.619 32.588,156.833 30.784,156.833 30.736 C 156.833 30.688,157.221 30.672,157.694 30.700 L 158.555 30.750 159.804 33.716 M314.298 31.290 C 314.875 31.323,315.775 31.323,316.298 31.290 C 316.822 31.257,316.350 31.230,315.250 31.230 C 314.150 31.231,313.722 31.258,314.298 31.290 M124.444 32.111 C 124.383 32.172,124.333 32.772,124.333 33.444 L 124.333 34.667 126.250 34.667 C 128.008 34.667,128.167 34.692,128.167 34.977 C 128.167 35.328,127.413 36.513,127.060 36.718 C 126.887 36.818,127.120 37.085,127.955 37.744 L 129.083 38.634 129.468 38.279 C 130.660 37.178,131.700 33.094,131.003 32.253 C 130.783 31.989,124.699 31.857,124.444 32.111 M308.232 33.375 C 307.721 33.929,307.124 34.718,307.443 34.417 C 307.799 34.081,308.870 32.833,308.802 32.833 C 308.764 32.833,308.507 33.077,308.232 33.375 M297.513 34.199 C 297.506 34.354,297.333 34.598,297.130 34.741 C 296.926 34.883,296.839 35.000,296.937 35.000 C 297.220 35.000,297.710 34.374,297.614 34.135 C 297.555 33.989,297.522 34.010,297.513 34.199 M336.129 34.289 C 336.521 34.324,337.121 34.324,337.463 34.288 C 337.804 34.252,337.483 34.223,336.750 34.224 C 336.017 34.224,335.737 34.254,336.129 34.289 M151.386 35.325 C 149.854 36.259,150.453 38.001,152.304 37.999 C 154.095 37.998,155.643 35.874,154.333 35.215 C 153.674 34.883,152.009 34.945,151.386 35.325 M294.375 35.121 C 294.719 35.157,295.281 35.157,295.625 35.121 C 295.969 35.085,295.688 35.056,295.000 35.056 C 294.313 35.056,294.031 35.085,294.375 35.121 M306.405 41.000 C 306.405 43.246,306.429 44.165,306.458 43.042 C 306.487 41.919,306.487 40.081,306.458 38.958 C 306.429 37.835,306.405 38.754,306.405 41.000 M315.121 37.954 C 315.417 37.990,315.942 37.991,316.288 37.955 C 316.634 37.919,316.392 37.889,315.750 37.888 C 315.108 37.887,314.825 37.917,315.121 37.954 M313.916 38.334 C 313.490 38.805,313.671 38.849,314.119 38.383 C 314.322 38.173,314.427 38.000,314.353 38.000 C 314.279 38.000,314.082 38.150,313.916 38.334 M328.784 38.583 C 329.234 39.223,329.947 39.879,330.583 40.241 C 331.069 40.517,331.071 40.517,330.667 40.231 C 330.438 40.070,329.841 39.520,329.341 39.010 C 328.841 38.501,328.591 38.308,328.784 38.583 M225.523 39.083 C 225.508 39.358,225.312 39.905,225.088 40.298 C 224.863 40.690,224.752 40.967,224.842 40.911 C 225.171 40.708,225.684 39.462,225.618 39.029 C 225.552 38.595,225.549 38.597,225.523 39.083 M317.898 41.083 C 317.898 42.275,317.925 42.741,317.957 42.118 C 317.989 41.496,317.989 40.521,317.957 39.951 C 317.924 39.382,317.898 39.892,317.898 41.083 M218.667 41.250 C 218.978 41.571,219.270 41.833,219.315 41.833 C 219.361 41.833,219.144 41.571,218.833 41.250 C 218.522 40.929,218.230 40.667,218.185 40.667 C 218.139 40.667,218.356 40.929,218.667 41.250 M300.833 41.597 C 300.329 41.813,300.029 41.990,300.167 41.991 C 300.463 41.993,301.833 41.390,301.833 41.258 C 301.833 41.208,301.815 41.175,301.792 41.185 C 301.769 41.196,301.337 41.381,300.833 41.597 M337.917 41.453 C 338.100 41.498,338.400 41.658,338.583 41.809 C 338.914 42.081,338.914 42.080,338.599 41.708 C 338.425 41.502,338.125 41.342,337.933 41.353 C 337.597 41.371,337.596 41.375,337.917 41.453 M213.167 42.083 C 213.167 42.265,213.990 43.667,214.097 43.667 C 214.143 43.667,213.977 43.310,213.727 42.875 C 213.190 41.937,213.167 41.904,213.167 42.083 M220.391 42.372 C 220.497 42.440,221.033 42.495,221.583 42.495 C 222.133 42.495,222.670 42.440,222.776 42.372 C 222.882 42.305,222.345 42.250,221.583 42.250 C 220.822 42.250,220.285 42.305,220.391 42.372 M293.534 45.958 C 293.567 49.793,293.629 49.353,293.707 44.708 C 293.731 43.310,293.694 42.166,293.625 42.166 C 293.556 42.167,293.515 43.873,293.534 45.958 M330.074 43.762 C 329.896 43.907,329.862 43.963,330.000 43.887 C 330.137 43.812,331.938 43.710,334.000 43.661 L 337.750 43.571 334.074 43.536 C 330.941 43.505,330.349 43.539,330.074 43.762 M215.083 44.809 C 216.064 45.831,218.311 47.184,218.978 47.155 C 219.127 47.148,218.985 47.046,218.662 46.926 C 217.372 46.451,216.294 45.786,215.215 44.801 L 214.083 43.768 215.083 44.809 M345.116 46.919 C 344.963 47.238,344.873 47.500,344.915 47.500 C 345.029 47.500,345.535 46.480,345.459 46.403 C 345.423 46.367,345.268 46.599,345.116 46.919 M224.750 46.860 C 224.292 47.031,224.104 47.131,224.333 47.081 C 224.563 47.032,224.956 46.947,225.208 46.892 L 225.667 46.792 225.667 50.542 C 225.667 53.919,225.696 54.315,225.958 54.513 C 226.206 54.701,226.219 54.699,226.042 54.500 C 225.889 54.329,225.833 53.293,225.831 50.592 C 225.828 46.330,225.861 46.446,224.750 46.860 M308.167 48.560 C 308.579 48.999,309.067 49.438,309.250 49.535 C 309.433 49.632,309.546 49.678,309.500 49.638 C 309.454 49.597,308.967 49.158,308.417 48.662 L 307.417 47.761 308.167 48.560 M324.708 48.875 C 324.529 49.365,324.534 49.386,324.755 49.093 C 324.967 48.813,325.092 48.333,324.953 48.333 C 324.927 48.333,324.817 48.577,324.708 48.875 M329.667 49.980 C 329.667 50.143,330.315 50.749,330.384 50.652 C 330.411 50.614,330.261 50.417,330.050 50.214 C 329.839 50.011,329.667 49.906,329.667 49.980 M288.367 50.624 C 289.164 50.654,290.514 50.655,291.367 50.624 C 292.219 50.594,291.567 50.569,289.917 50.569 C 288.267 50.569,287.569 50.593,288.367 50.624 M314.958 50.625 C 316.356 50.653,318.644 50.653,320.042 50.625 C 321.440 50.597,320.296 50.574,317.500 50.574 C 314.704 50.574,313.560 50.597,314.958 50.625 M379.550 50.624 C 380.356 50.655,381.631 50.655,382.383 50.624 C 383.135 50.593,382.475 50.568,380.917 50.568 C 379.358 50.568,378.743 50.594,379.550 50.624 " stroke="none" fill="#6b7cf4" fill-rule="evenodd"></path><path id="path5" d="M8.208 22.277 C 8.094 22.323,8.000 22.527,8.000 22.731 C 8.000 22.934,7.930 23.171,7.845 23.258 C 7.759 23.345,7.430 24.467,7.112 25.750 C 6.795 27.033,6.455 28.271,6.358 28.500 C 6.261 28.729,5.982 29.779,5.738 30.833 C 5.494 31.887,5.159 33.125,4.993 33.583 C 4.827 34.042,4.526 35.129,4.324 36.000 C 4.121 36.871,3.786 38.146,3.579 38.833 C 3.371 39.521,3.078 40.571,2.928 41.167 C 2.777 41.762,2.509 42.775,2.331 43.417 C 1.761 45.474,1.994 46.356,3.232 46.826 C 3.903 47.082,28.674 47.065,29.236 46.809 C 29.924 46.496,30.479 45.491,30.916 43.768 C 31.143 42.874,31.369 42.076,31.419 41.996 C 31.469 41.915,31.813 40.702,32.182 39.299 C 32.552 37.897,33.122 35.775,33.449 34.583 C 33.776 33.392,34.302 31.367,34.619 30.083 C 34.935 28.800,35.264 27.618,35.349 27.457 C 35.641 26.907,36.657 22.669,36.559 22.413 C 36.476 22.197,36.095 22.165,34.105 22.204 L 31.750 22.250 31.557 23.033 C 31.450 23.464,31.312 23.899,31.250 24.000 C 31.187 24.101,30.885 25.136,30.578 26.300 C 30.271 27.464,29.827 29.092,29.593 29.917 C 29.358 30.742,29.093 31.775,29.003 32.213 C 28.914 32.651,28.770 33.141,28.684 33.302 C 28.535 33.578,27.508 37.299,27.432 37.833 C 27.412 37.971,27.317 38.233,27.220 38.417 C 27.123 38.600,26.994 39.025,26.934 39.362 C 26.873 39.698,26.710 40.355,26.572 40.820 L 26.320 41.667 17.149 41.667 C 8.496 41.667,7.982 41.650,8.055 41.375 C 8.097 41.215,8.297 40.446,8.498 39.667 C 8.700 38.887,9.005 37.762,9.176 37.167 C 9.787 35.040,9.998 34.237,10.184 33.333 C 10.287 32.829,10.433 32.341,10.507 32.248 C 10.581 32.156,10.908 31.031,11.235 29.748 C 11.561 28.466,12.115 26.323,12.465 24.987 C 12.816 23.650,13.073 22.469,13.037 22.362 C 12.972 22.166,8.671 22.090,8.208 22.277 M39.483 22.625 C 39.074 23.689,38.167 26.861,38.167 27.223 C 38.167 27.479,39.075 27.500,49.936 27.500 L 61.706 27.500 61.600 27.958 C 61.434 28.675,61.414 28.739,61.294 28.932 C 61.231 29.031,61.099 29.481,60.999 29.932 C 60.900 30.382,60.744 31.031,60.653 31.375 L 60.487 32.000 48.749 32.000 C 35.794 32.000,36.795 31.917,36.642 33.000 C 36.610 33.229,36.535 33.454,36.475 33.500 C 36.415 33.546,36.131 34.521,35.843 35.667 C 35.554 36.813,35.288 37.862,35.251 38.000 C 35.214 38.137,35.040 38.775,34.864 39.417 C 34.688 40.058,34.448 40.996,34.330 41.500 C 34.212 42.004,34.053 42.529,33.976 42.667 C 33.814 42.958,33.247 45.260,33.083 46.292 L 32.971 47.000 35.462 47.000 L 37.953 47.000 38.324 45.542 C 38.661 44.223,39.322 41.909,39.671 40.833 C 39.746 40.604,39.935 39.854,40.093 39.167 C 40.250 38.479,40.446 37.785,40.529 37.625 C 40.669 37.352,41.357 37.333,51.398 37.333 L 62.117 37.333 62.928 36.902 C 64.279 36.184,64.830 35.399,65.084 33.833 C 65.151 33.421,65.297 32.896,65.408 32.667 C 65.519 32.438,65.820 31.350,66.077 30.250 C 66.334 29.150,66.641 28.025,66.759 27.750 C 67.052 27.064,67.500 24.821,67.500 24.039 C 67.500 23.297,67.315 23.022,66.480 22.526 L 65.877 22.167 52.768 22.167 L 39.658 22.167 39.483 22.625 M71.009 22.801 C 70.915 23.149,70.789 23.693,70.729 24.009 C 70.669 24.325,70.567 24.658,70.502 24.750 C 70.381 24.923,70.127 25.871,69.856 27.167 C 69.770 27.579,69.537 28.479,69.340 29.167 C 69.142 29.854,68.757 31.279,68.484 32.333 C 68.211 33.387,67.921 34.475,67.840 34.750 C 67.759 35.025,67.571 35.737,67.422 36.333 C 67.273 36.929,66.896 38.354,66.584 39.500 C 66.273 40.646,65.874 42.146,65.698 42.833 C 65.522 43.521,65.226 44.646,65.040 45.333 C 64.608 46.932,64.462 46.833,67.250 46.833 C 69.840 46.833,69.767 46.861,69.992 45.803 C 70.255 44.570,70.498 43.667,70.649 43.369 C 70.793 43.085,71.016 42.250,71.416 40.500 C 71.531 39.996,71.831 38.908,72.082 38.083 C 72.332 37.258,72.607 36.208,72.692 35.750 C 72.776 35.292,72.990 34.467,73.166 33.917 C 73.509 32.847,73.834 31.691,74.245 30.083 C 75.383 25.621,75.739 24.291,76.020 23.450 C 76.455 22.147,76.491 22.167,73.663 22.167 L 71.180 22.167 71.009 22.801 M286.579 36.500 C 286.579 43.879,286.600 46.898,286.625 43.208 C 286.650 39.519,286.650 33.481,286.625 29.792 C 286.600 26.102,286.579 29.121,286.579 36.500 M123.961 26.454 C 124.261 26.491,124.711 26.490,124.961 26.452 C 125.212 26.414,124.967 26.384,124.417 26.385 C 123.867 26.386,123.662 26.417,123.961 26.454 M124.044 29.120 C 124.297 29.158,124.672 29.157,124.877 29.117 C 125.082 29.078,124.875 29.046,124.417 29.048 C 123.958 29.049,123.791 29.081,124.044 29.120 M336.121 34.454 C 336.417 34.490,336.942 34.491,337.288 34.455 C 337.634 34.419,337.392 34.389,336.750 34.388 C 336.108 34.387,335.825 34.417,336.121 34.454 M85.324 35.292 L 84.750 35.917 85.375 35.342 C 85.957 34.808,86.077 34.667,85.949 34.667 C 85.922 34.667,85.640 34.948,85.324 35.292 M120.064 35.042 C 119.827 35.320,119.819 35.358,120.031 35.194 C 120.276 35.005,120.346 35.041,120.568 35.471 C 121.579 37.426,124.159 38.348,126.183 37.477 C 127.261 37.014,127.160 36.939,125.998 37.340 C 123.872 38.074,121.642 37.228,120.703 35.330 L 120.379 34.674 120.064 35.042 M118.520 36.175 L 118.123 36.505 118.730 37.420 C 120.253 39.713,123.802 40.964,126.333 40.100 C 126.910 39.904,126.948 39.872,126.500 39.964 C 123.666 40.544,121.138 39.830,119.407 37.961 C 118.440 36.917,118.338 36.622,118.776 36.138 C 119.134 35.742,119.020 35.758,118.520 36.175 M127.875 37.835 C 128.849 38.696,128.850 38.725,127.884 39.337 C 127.454 39.610,127.178 39.833,127.272 39.833 C 127.463 39.833,129.000 38.846,129.000 38.724 C 129.000 38.634,128.146 37.900,127.510 37.443 C 127.276 37.274,127.440 37.451,127.875 37.835 M82.078 38.375 L 81.083 39.417 82.125 38.422 C 83.093 37.498,83.243 37.333,83.120 37.333 C 83.094 37.333,82.625 37.802,82.078 38.375 M306.570 40.833 C 306.570 42.712,306.595 43.481,306.624 42.542 C 306.654 41.602,306.654 40.065,306.624 39.125 C 306.595 38.185,306.570 38.954,306.570 40.833 M315.295 37.787 C 315.594 37.825,316.044 37.824,316.295 37.786 C 316.545 37.748,316.300 37.717,315.750 37.718 C 315.200 37.719,314.995 37.750,315.295 37.787 M318.064 41.000 C 318.064 42.146,318.091 42.615,318.123 42.042 C 318.156 41.469,318.156 40.531,318.123 39.958 C 318.091 39.385,318.064 39.854,318.064 41.000 " stroke="none" fill="#6c6c6b" fill-rule="evenodd"></path><path id="path6" d="M83.937 22.590 C 83.880 22.739,83.833 23.038,83.833 23.254 C 83.833 23.470,83.769 23.687,83.690 23.736 C 83.546 23.824,83.443 24.175,82.889 26.450 L 82.597 27.650 84.299 31.038 C 85.234 32.902,85.999 34.500,85.998 34.588 C 85.997 34.677,84.436 36.228,82.529 38.036 C 78.707 41.659,78.894 41.413,78.186 43.750 C 77.367 46.455,77.373 47.524,78.199 46.360 C 78.319 46.191,78.502 46.022,78.607 45.985 C 78.711 45.947,80.248 44.521,82.023 42.814 C 83.798 41.108,85.737 39.258,86.333 38.702 C 86.929 38.146,88.124 37.015,88.988 36.187 L 90.560 34.682 87.488 28.560 C 84.501 22.606,84.155 22.023,83.937 22.590 M119.375 35.677 C 118.275 36.521,118.278 36.741,119.407 37.961 C 121.567 40.294,125.412 40.904,127.922 39.313 C 128.852 38.723,128.850 38.684,127.829 37.830 L 126.992 37.129 126.173 37.481 C 124.165 38.345,121.577 37.422,120.574 35.482 C 120.272 34.899,120.420 34.875,119.375 35.677 " stroke="none" fill="#119148" fill-rule="evenodd"></path><path id="path7" d="M79.833 22.558 C 79.833 22.681,79.718 23.013,79.577 23.296 C 79.436 23.578,79.215 24.283,79.085 24.863 C 78.955 25.442,78.774 26.179,78.683 26.500 C 78.591 26.821,78.321 27.796,78.083 28.667 C 77.235 31.761,77.141 32.095,76.822 33.167 C 76.644 33.762,76.419 34.625,76.321 35.083 C 76.223 35.542,76.001 36.367,75.827 36.917 C 75.653 37.467,75.356 38.554,75.166 39.333 C 74.977 40.112,74.702 41.125,74.555 41.583 C 73.731 44.161,73.219 46.576,73.466 46.729 C 73.704 46.876,78.204 42.620,79.000 41.494 C 79.229 41.170,80.898 39.492,82.708 37.764 C 84.519 36.036,86.000 34.609,86.000 34.592 C 86.000 34.576,85.251 33.067,84.337 31.239 C 83.286 29.141,82.672 27.721,82.670 27.385 C 82.668 27.092,82.591 26.807,82.500 26.750 C 82.408 26.693,82.178 26.295,81.990 25.865 C 81.802 25.435,81.459 24.746,81.229 24.333 C 80.999 23.921,80.692 23.302,80.547 22.958 C 80.292 22.355,79.833 22.098,79.833 22.558 M122.417 26.724 C 118.667 27.962,116.650 31.746,117.756 35.470 C 118.069 36.521,118.111 36.524,119.346 35.573 L 120.334 34.813 120.229 33.924 C 119.821 30.446,123.436 27.872,126.391 29.539 L 127.198 29.994 128.057 29.171 C 129.104 28.169,129.053 28.007,127.429 27.172 C 126.131 26.505,123.730 26.290,122.417 26.724 " stroke="none" fill="#f86c0d" fill-rule="evenodd"></path></g></svg>